<?xml version="1.0" encoding="utf-8"?>
<!-- Generator: Adobe Illustrator 25.2.0, SVG Export Plug-In . SVG Version: 6.00 Build 0)  -->
<svg version="1.1" id="Layer_1" xmlns="http://www.w3.org/2000/svg" xmlns:xlink="http://www.w3.org/1999/xlink" x="0px" y="0px"
	 viewBox="0 0 287.6 144" style="enable-background:new 0 0 287.6 144;" xml:space="preserve">
<style type="text/css">
	.st0{enable-background:new    ;}
</style>
<g class="st0">
	<path d="M7,108.5V10.6h13.4l15.9,69.3c1.5,6.5,2.5,11.3,3.2,14.5c0.8-3.6,2-8.8,3.6-15.7l16.1-68.1h12v97.9h-8.6V26.6l-19.6,81.9
		h-8L15.6,25.2v83.3H7z"/>
	<path d="M85.3,108.5V10.6h8.9v86.3h33.2v11.5H85.3z"/>
	<path d="M135,77l8.4-1.1c0.4,4.9,1.3,8.9,2.8,12c1.5,3.1,3.7,5.7,6.8,7.6c3.1,1.9,6.5,2.9,10.3,2.9c3.4,0,6.4-0.7,9-2.2
		s4.5-3.5,5.8-6c1.3-2.6,1.9-5.3,1.9-8.4c0-3.1-0.6-5.8-1.8-8c-1.2-2.3-3.2-4.2-6.1-5.8c-1.8-1-5.8-2.6-12-4.8
		c-6.2-2.2-10.5-4.2-13-6.1c-3.2-2.4-5.6-5.5-7.2-9.1c-1.6-3.6-2.4-7.7-2.4-12.2c0-4.9,1-9.6,2.9-13.9c1.9-4.3,4.7-7.6,8.5-9.8
		c3.7-2.2,7.8-3.3,12.4-3.3c5,0,9.4,1.2,13.2,3.5c3.8,2.3,6.7,5.8,8.8,10.3c2.1,4.5,3.2,9.7,3.3,15.4l-8.5,0.9
		c-0.5-6.2-2-10.9-4.7-14c-2.7-3.2-6.6-4.7-11.7-4.7c-5.4,0-9.3,1.4-11.8,4.3c-2.5,2.9-3.7,6.3-3.7,10.4c0,3.5,0.9,6.4,2.6,8.7
		c1.7,2.3,6.2,4.6,13.4,7c7.2,2.4,12.2,4.5,14.9,6.2c3.9,2.6,6.8,6,8.7,10c1.9,4,2.8,8.7,2.8,13.9c0,5.2-1,10.1-3.1,14.7
		c-2.1,4.6-5,8.2-8.8,10.7c-3.8,2.6-8.2,3.8-13,3.8c-6.1,0-11.2-1.3-15.3-3.9c-4.1-2.6-7.4-6.5-9.7-11.6
		C136.3,89.4,135.1,83.6,135,77z"/>
	<path d="M199.3,135.8l-0.9-11.3c1.8,0.7,3.4,1.1,4.7,1.1c1.8,0,3.3-0.4,4.4-1.3c1.1-0.9,2-2.1,2.7-3.7c0.5-1.2,1.4-4.2,2.5-8.9
		c0.2-0.7,0.4-1.6,0.7-2.9l-18.5-71h8.9l10.2,41c1.3,5.2,2.5,10.7,3.5,16.4c0.9-5.5,2.1-10.9,3.4-16.2l10.4-41.3h8.3l-18.6,72.1
		c-2,7.8-3.5,13.1-4.6,16.1c-1.5,4-3.2,6.9-5.1,8.7c-1.9,1.8-4.2,2.8-6.8,2.8C203.1,137.2,201.3,136.7,199.3,135.8z"/>
	<path d="M243.4,87.3l8.2-1.9c0.5,4.8,1.7,8.4,3.8,10.9c2.1,2.5,5,3.8,8.8,3.8c3.8,0,6.6-1.1,8.5-3.4c1.8-2.2,2.8-4.9,2.8-7.9
		c0-2.7-0.8-4.8-2.4-6.4c-1.1-1.1-4-2.4-8.5-4.1c-6.1-2.2-10.3-4.1-12.6-5.8c-2.3-1.6-4.1-3.9-5.3-6.7s-1.8-6-1.8-9.5
		c0-3.2,0.5-6.1,1.5-8.8c1-2.7,2.3-4.9,4.1-6.7c1.3-1.4,3-2.5,5.3-3.5c2.2-1,4.6-1.4,7.1-1.4c3.8,0,7.2,0.8,10.1,2.4
		c2.9,1.6,5,3.8,6.4,6.5s2.3,6.4,2.8,11l-8.1,1.6c-0.4-3.6-1.4-6.5-3.2-8.5c-1.8-2-4.3-3.1-7.5-3.1c-3.8,0-6.5,0.9-8.1,2.7
		c-1.6,1.8-2.4,4-2.4,6.4c0,1.6,0.3,3,1,4.2c0.7,1.3,1.7,2.4,3.2,3.2c0.8,0.4,3.3,1.5,7.3,3.1c5.9,2.3,9.9,4.1,12.2,5.6
		c2.3,1.4,4.1,3.5,5.4,6.3s2,6.2,2,10.3c0,4-0.8,7.8-2.4,11.3s-3.9,6.3-7,8.2c-3,1.9-6.5,2.9-10.3,2.9c-6.3,0-11.2-1.9-14.5-5.7
		C246.5,100.5,244.4,94.8,243.4,87.3z"/>
</g>
</svg>
